STARTFONT 2.1
COMMENT 
COMMENT Copyright (C) 2012-2015 Uwe Waldmann
COMMENT Modifications Copyright(c) 2018 Andy Walker
FONT -AW-Greybeard-Bold-R-Normal--13-120-75-75-C-70--Fontspecific
SIZE 13 75 75
FONTBOUNDINGBOX 7 13 0 -2
STARTPROPERTIES 19
FONTNAME_REGISTRY ""
FOUNDRY "AW"
FAMILY_NAME "Greybeard"
WEIGHT_NAME "Bold"
SLANT "R"
SETWIDTH_NAME "Normal"
ADD_STYLE_NAME ""
PIXEL_SIZE 13
POINT_SIZE 120
RESOLUTION_X 75
RESOLUTION_Y 75
SPACING "C"
AVERAGE_WIDTH 70
CHARSET_REGISTRY ""
CHARSET_ENCODING "Fontspecific"
DEFAULT_CHAR 0
FONT_DESCENT 2
FONT_ASCENT 11
COPYRIGHT "Copyright (C) 2012-2015 Uwe Waldmann, Modifications Copyright(c) 2018 Andy Walker"
ENDPROPERTIES
CHARS 234
STARTCHAR LtCapALdot
ENCODING 735
SWIDTH 840 0
DWIDTH 7 0
BBX 7 13 0 -2
BITMAP
00
00
18
18
18
3c
2c
2c
7e
46
46
00
18
ENDCHAR
STARTCHAR LtCapBLdot
ENCODING 736
SWIDTH 840 0
DWIDTH 7 0
BBX 7 13 0 -2
BITMAP
00
00
7c
66
66
64
7c
66
66
66
7c
00
18
ENDCHAR
STARTCHAR LtCapCLdot
ENCODING 737
SWIDTH 840 0
DWIDTH 7 0
BBX 7 13 0 -2
BITMAP
00
00
1c
36
60
60
60
60
60
36
1c
00
18
ENDCHAR
STARTCHAR LtCapDLdot
ENCODING 738
SWIDTH 840 0
DWIDTH 7 0
BBX 7 13 0 -2
BITMAP
00
00
78
64
66
66
66
66
66
64
78
00
30
ENDCHAR
STARTCHAR LtCapELdot
ENCODING 739
SWIDTH 840 0
DWIDTH 7 0
BBX 7 13 0 -2
BITMAP
00
00
7e
62
60
64
7c
64
60
62
7e
00
18
ENDCHAR
STARTCHAR LtCapHLdot
ENCODING 740
SWIDTH 840 0
DWIDTH 7 0
BBX 7 13 0 -2
BITMAP
00
00
66
66
66
66
7e
66
66
66
66
00
18
ENDCHAR
STARTCHAR LtCapILdot
ENCODING 741
SWIDTH 840 0
DWIDTH 7 0
BBX 7 13 0 -2
BITMAP
00
00
7e
18
18
18
18
18
18
18
7e
00
18
ENDCHAR
STARTCHAR LtCapKLdot
ENCODING 742
SWIDTH 840 0
DWIDTH 7 0
BBX 7 13 0 -2
BITMAP
00
00
66
64
68
78
78
6c
6c
66
66
00
18
ENDCHAR
STARTCHAR LtCapLLdot
ENCODING 743
SWIDTH 840 0
DWIDTH 7 0
BBX 7 13 0 -2
BITMAP
00
00
60
60
60
60
60
60
60
62
7e
00
18
ENDCHAR
STARTCHAR LtCapMLdot
ENCODING 744
SWIDTH 840 0
DWIDTH 7 0
BBX 7 13 0 -2
BITMAP
00
00
42
66
7e
7e
56
56
46
46
46
00
18
ENDCHAR
STARTCHAR LtCapNLdot
ENCODING 745
SWIDTH 840 0
DWIDTH 7 0
BBX 7 13 0 -2
BITMAP
00
00
62
72
72
5a
5a
4e
4e
46
46
00
18
ENDCHAR
STARTCHAR LtCapOLdot
ENCODING 746
SWIDTH 840 0
DWIDTH 7 0
BBX 7 13 0 -2
BITMAP
00
00
3c
66
66
66
66
66
66
66
3c
00
18
ENDCHAR
STARTCHAR LtCapPLdot
ENCODING 747
SWIDTH 840 0
DWIDTH 7 0
BBX 7 13 0 -2
BITMAP
00
00
7c
66
66
66
7c
60
60
60
60
00
60
ENDCHAR
STARTCHAR LtCapQLdot
ENCODING 748
SWIDTH 840 0
DWIDTH 7 0
BBX 7 13 0 -2
BITMAP
00
00
3c
66
66
66
66
66
76
6e
3c
06
1a
ENDCHAR
STARTCHAR LtCapRLdot
ENCODING 749
SWIDTH 840 0
DWIDTH 7 0
BBX 7 13 0 -2
BITMAP
00
00
7c
66
66
66
7c
68
6c
66
66
00
18
ENDCHAR
STARTCHAR LtCapSLdot
ENCODING 750
SWIDTH 840 0
DWIDTH 7 0
BBX 7 13 0 -2
BITMAP
00
00
3c
66
60
70
3c
0e
06
66
3c
00
18
ENDCHAR
STARTCHAR LtCapTLdot
ENCODING 751
SWIDTH 840 0
DWIDTH 7 0
BBX 7 13 0 -2
BITMAP
00
00
7e
5a
18
18
18
18
18
18
18
00
18
ENDCHAR
STARTCHAR LtCapULdot
ENCODING 752
SWIDTH 840 0
DWIDTH 7 0
BBX 7 13 0 -2
BITMAP
00
00
66
66
66
66
66
66
66
66
3c
00
18
ENDCHAR
STARTCHAR LtCapVLdot
ENCODING 753
SWIDTH 840 0
DWIDTH 7 0
BBX 7 13 0 -2
BITMAP
00
00
62
62
36
34
34
1c
18
18
08
00
18
ENDCHAR
STARTCHAR LtCapWLdot
ENCODING 754
SWIDTH 840 0
DWIDTH 7 0
BBX 7 13 0 -2
BITMAP
00
00
62
62
62
6a
6a
7e
3c
34
34
00
18
ENDCHAR
STARTCHAR LtCapYLdot
ENCODING 755
SWIDTH 840 0
DWIDTH 7 0
BBX 7 13 0 -2
BITMAP
00
00
66
66
34
38
18
18
18
18
18
00
18
ENDCHAR
STARTCHAR LtCapZLdot
ENCODING 756
SWIDTH 840 0
DWIDTH 7 0
BBX 7 13 0 -2
BITMAP
00
00
7e
46
0c
0c
18
30
30
62
7e
00
18
ENDCHAR
STARTCHAR LtSmlALdot
ENCODING 757
SWIDTH 840 0
DWIDTH 7 0
BBX 7 13 0 -2
BITMAP
00
00
00
00
3c
36
06
3e
66
66
3e
00
18
ENDCHAR
STARTCHAR LtSmlBLdot
ENCODING 758
SWIDTH 840 0
DWIDTH 7 0
BBX 7 13 0 -2
BITMAP
00
60
60
60
6c
76
66
66
66
76
6c
00
18
ENDCHAR
STARTCHAR LtSmlCLdot
ENCODING 759
SWIDTH 840 0
DWIDTH 7 0
BBX 7 13 0 -2
BITMAP
00
00
00
00
3c
66
60
60
60
66
3c
00
18
ENDCHAR
STARTCHAR LtSmlDLdot
ENCODING 760
SWIDTH 840 0
DWIDTH 7 0
BBX 7 13 0 -2
BITMAP
00
06
06
06
36
6e
66
66
66
6e
36
00
18
ENDCHAR
STARTCHAR LtSmlELdot
ENCODING 761
SWIDTH 840 0
DWIDTH 7 0
BBX 7 13 0 -2
BITMAP
00
00
00
00
3c
66
66
7e
60
66
3c
00
18
ENDCHAR
STARTCHAR LtSmlHLdot
ENCODING 762
SWIDTH 840 0
DWIDTH 7 0
BBX 7 13 0 -2
BITMAP
00
60
60
60
6c
76
66
66
66
66
66
00
18
ENDCHAR
STARTCHAR LtSmlILdot
ENCODING 763
SWIDTH 840 0
DWIDTH 7 0
BBX 7 13 0 -2
BITMAP
00
18
18
00
38
18
18
18
18
18
7e
00
18
ENDCHAR
STARTCHAR LtSmlKLdot
ENCODING 764
SWIDTH 840 0
DWIDTH 7 0
BBX 7 13 0 -2
BITMAP
00
60
60
60
66
64
68
78
6c
66
66
00
18
ENDCHAR
STARTCHAR LtSmlLLdot
ENCODING 765
SWIDTH 840 0
DWIDTH 7 0
BBX 7 13 0 -2
BITMAP
00
38
18
18
18
18
18
18
18
18
7e
00
18
ENDCHAR
STARTCHAR LtSmlMLdot
ENCODING 766
SWIDTH 840 0
DWIDTH 7 0
BBX 7 13 0 -2
BITMAP
00
00
00
00
6c
7e
7e
6a
6a
6a
6a
00
18
ENDCHAR
STARTCHAR LtSmlNLdot
ENCODING 767
SWIDTH 840 0
DWIDTH 7 0
BBX 7 13 0 -2
BITMAP
00
00
00
00
6c
76
66
66
66
66
66
00
18
ENDCHAR
STARTCHAR LtSmlOLdot
ENCODING 768
SWIDTH 840 0
DWIDTH 7 0
BBX 7 13 0 -2
BITMAP
00
00
00
00
3c
66
66
66
66
66
3c
00
18
ENDCHAR
STARTCHAR LtSmlPLdot
ENCODING 769
SWIDTH 840 0
DWIDTH 7 0
BBX 7 13 0 -2
BITMAP
00
00
00
00
6c
76
66
66
66
76
6c
60
6c
ENDCHAR
STARTCHAR LtSmlQLdot
ENCODING 770
SWIDTH 840 0
DWIDTH 7 0
BBX 7 13 0 -2
BITMAP
00
00
00
00
36
6e
66
66
66
6e
36
06
36
ENDCHAR
STARTCHAR LtSmlRLdot
ENCODING 771
SWIDTH 840 0
DWIDTH 7 0
BBX 7 13 0 -2
BITMAP
00
00
00
00
76
3e
30
30
30
30
30
00
30
ENDCHAR
STARTCHAR LtSmlSLdot
ENCODING 772
SWIDTH 840 0
DWIDTH 7 0
BBX 7 13 0 -2
BITMAP
00
00
00
00
3c
66
60
3c
06
66
3c
00
18
ENDCHAR
STARTCHAR LtSmlTLdot
ENCODING 773
SWIDTH 840 0
DWIDTH 7 0
BBX 7 13 0 -2
BITMAP
00
00
30
30
7c
30
30
30
30
36
1c
00
18
ENDCHAR
STARTCHAR LtSmlULdot
ENCODING 774
SWIDTH 840 0
DWIDTH 7 0
BBX 7 13 0 -2
BITMAP
00
00
00
00
66
66
66
66
66
6e
36
00
18
ENDCHAR
STARTCHAR LtSmlVLdot
ENCODING 775
SWIDTH 840 0
DWIDTH 7 0
BBX 7 13 0 -2
BITMAP
00
00
00
00
62
62
36
34
1c
18
08
00
18
ENDCHAR
STARTCHAR LtSmlWLdot
ENCODING 776
SWIDTH 840 0
DWIDTH 7 0
BBX 7 13 0 -2
BITMAP
00
00
00
00
62
6a
6a
6a
7e
34
34
00
18
ENDCHAR
STARTCHAR LtSmlYLdot
ENCODING 777
SWIDTH 840 0
DWIDTH 7 0
BBX 7 13 0 -2
BITMAP
00
00
00
00
62
62
36
34
1c
18
08
50
76
ENDCHAR
STARTCHAR LtSmlZLdot
ENCODING 778
SWIDTH 840 0
DWIDTH 7 0
BBX 7 13 0 -2
BITMAP
00
00
00
00
7e
4e
0c
18
30
72
7e
00
18
ENDCHAR
STARTCHAR LtCapOHornLdot
ENCODING 779
SWIDTH 840 0
DWIDTH 7 0
BBX 7 13 0 -2
BITMAP
0e
06
3c
66
66
66
66
66
66
66
3c
00
18
ENDCHAR
STARTCHAR LtCapUHornLdot
ENCODING 780
SWIDTH 840 0
DWIDTH 7 0
BBX 7 13 0 -2
BITMAP
0e
06
64
66
66
66
66
66
66
66
3c
00
18
ENDCHAR
STARTCHAR LtSmlOHornLdot
ENCODING 781
SWIDTH 840 0
DWIDTH 7 0
BBX 7 13 0 -2
BITMAP
00
00
0e
06
3c
66
66
66
66
66
3c
00
18
ENDCHAR
STARTCHAR LtSmlUHornLdot
ENCODING 782
SWIDTH 840 0
DWIDTH 7 0
BBX 7 13 0 -2
BITMAP
00
00
0e
06
64
66
66
66
66
6e
36
00
18
ENDCHAR
STARTCHAR LtCapSDotLdot
ENCODING 783
SWIDTH 840 0
DWIDTH 7 0
BBX 7 13 0 -2
BITMAP
18
18
00
3c
66
60
38
1c
06
66
3c
00
18
ENDCHAR
STARTCHAR LtSmlSDotLdot
ENCODING 784
SWIDTH 840 0
DWIDTH 7 0
BBX 7 13 0 -2
BITMAP
00
18
18
00
3c
66
60
3c
06
66
3c
00
18
ENDCHAR
STARTCHAR LtCapLMacronLdot
ENCODING 785
SWIDTH 840 0
DWIDTH 7 0
BBX 7 13 0 -2
BITMAP
78
78
00
60
60
60
60
60
60
62
7e
00
18
ENDCHAR
STARTCHAR LtCapRMacronLdot
ENCODING 786
SWIDTH 840 0
DWIDTH 7 0
BBX 7 13 0 -2
BITMAP
3c
3c
00
7c
66
66
7c
68
6c
66
66
00
18
ENDCHAR
STARTCHAR LtSmlLMacronLdot
ENCODING 787
SWIDTH 840 0
DWIDTH 7 0
BBX 7 13 0 -2
BITMAP
7c
00
38
18
18
18
18
18
18
18
7e
00
18
ENDCHAR
STARTCHAR LtSmlRMacronLdot
ENCODING 788
SWIDTH 840 0
DWIDTH 7 0
BBX 7 13 0 -2
BITMAP
00
3c
3c
00
76
3e
30
30
30
30
30
00
30
ENDCHAR
STARTCHAR LtCapEAcuteLdot
ENCODING 789
SWIDTH 840 0
DWIDTH 7 0
BBX 7 13 0 -2
BITMAP
0e
18
00
7e
62
60
7c
64
60
62
7e
00
18
ENDCHAR
STARTCHAR LtCapOAcuteLdot
ENCODING 790
SWIDTH 840 0
DWIDTH 7 0
BBX 7 13 0 -2
BITMAP
0e
18
00
3c
66
66
66
66
66
66
3c
00
18
ENDCHAR
STARTCHAR LtCapRAcuteLdot
ENCODING 791
SWIDTH 840 0
DWIDTH 7 0
BBX 7 13 0 -2
BITMAP
0e
18
00
7c
66
66
7c
68
6c
66
66
00
18
ENDCHAR
STARTCHAR LtSmlEAcuteLdot
ENCODING 792
SWIDTH 840 0
DWIDTH 7 0
BBX 7 13 0 -2
BITMAP
06
0c
08
00
3c
66
66
7e
60
66
3c
00
18
ENDCHAR
STARTCHAR LtSmlOAcuteLdot
ENCODING 793
SWIDTH 840 0
DWIDTH 7 0
BBX 7 13 0 -2
BITMAP
06
0c
08
00
3c
66
66
66
66
66
3c
00
18
ENDCHAR
STARTCHAR LtSmlRAcuteLdot
ENCODING 794
SWIDTH 840 0
DWIDTH 7 0
BBX 7 13 0 -2
BITMAP
06
0c
08
00
76
3e
30
30
30
30
30
00
30
ENDCHAR
STARTCHAR LtSmlRMacronAcuteLdot
ENCODING 795
SWIDTH 840 0
DWIDTH 7 0
BBX 7 13 0 -2
BITMAP
0e
18
3e
00
76
3e
30
30
30
30
30
00
30
ENDCHAR
STARTCHAR LtCapEGraveLdot
ENCODING 796
SWIDTH 840 0
DWIDTH 7 0
BBX 7 13 0 -2
BITMAP
70
18
00
7e
62
60
7c
64
60
62
7e
00
18
ENDCHAR
STARTCHAR LtCapOGraveLdot
ENCODING 797
SWIDTH 840 0
DWIDTH 7 0
BBX 7 13 0 -2
BITMAP
70
18
00
3c
66
66
66
66
66
66
3c
00
18
ENDCHAR
STARTCHAR LtCapRGraveLdot
ENCODING 798
SWIDTH 840 0
DWIDTH 7 0
BBX 7 13 0 -2
BITMAP
70
18
00
7c
66
66
7c
68
6c
66
66
00
18
ENDCHAR
STARTCHAR LtSmlEGraveLdot
ENCODING 799
SWIDTH 840 0
DWIDTH 7 0
BBX 7 13 0 -2
BITMAP
30
18
08
00
3c
66
66
7e
60
66
3c
00
18
ENDCHAR
STARTCHAR LtSmlOGraveLdot
ENCODING 800
SWIDTH 840 0
DWIDTH 7 0
BBX 7 13 0 -2
BITMAP
30
18
08
00
3c
66
66
66
66
66
3c
00
18
ENDCHAR
STARTCHAR LtSmlRGraveLdot
ENCODING 801
SWIDTH 840 0
DWIDTH 7 0
BBX 7 13 0 -2
BITMAP
30
18
08
00
76
3e
30
30
30
30
30
00
30
ENDCHAR
STARTCHAR LtCapACircumLdot
ENCODING 802
SWIDTH 840 0
DWIDTH 7 0
BBX 7 13 0 -2
BITMAP
1c
36
00
18
18
3c
2c
2c
7e
46
46
00
18
ENDCHAR
STARTCHAR LtCapECircumLdot
ENCODING 803
SWIDTH 840 0
DWIDTH 7 0
BBX 7 13 0 -2
BITMAP
1c
36
00
7e
62
60
7c
64
60
62
7e
00
18
ENDCHAR
STARTCHAR LtCapOCircumLdot
ENCODING 804
SWIDTH 840 0
DWIDTH 7 0
BBX 7 13 0 -2
BITMAP
1c
36
00
3c
66
66
66
66
66
66
3c
00
18
ENDCHAR
STARTCHAR LtSmlACircumLdot
ENCODING 805
SWIDTH 840 0
DWIDTH 7 0
BBX 7 13 0 -2
BITMAP
18
3c
24
00
3c
36
06
3e
66
66
3e
00
18
ENDCHAR
STARTCHAR LtSmlECircumLdot
ENCODING 806
SWIDTH 840 0
DWIDTH 7 0
BBX 7 13 0 -2
BITMAP
18
3c
24
00
3c
66
66
7e
60
66
3c
00
18
ENDCHAR
STARTCHAR LtSmlOCircumLdot
ENCODING 807
SWIDTH 840 0
DWIDTH 7 0
BBX 7 13 0 -2
BITMAP
18
3c
24
00
3c
66
66
66
66
66
3c
00
18
ENDCHAR
STARTCHAR LtCapCCaronLdot
ENCODING 808
SWIDTH 840 0
DWIDTH 7 0
BBX 7 13 0 -2
BITMAP
36
1c
00
1c
36
60
60
60
60
36
1c
00
18
ENDCHAR
STARTCHAR LtSmlCCaronLdot
ENCODING 809
SWIDTH 840 0
DWIDTH 7 0
BBX 7 13 0 -2
BITMAP
24
3c
18
00
3c
66
60
60
60
66
3c
00
18
ENDCHAR
STARTCHAR LtCapABreveLdot
ENCODING 810
SWIDTH 840 0
DWIDTH 7 0
BBX 7 13 0 -2
BITMAP
36
1c
00
18
18
3c
2c
2c
7e
46
46
00
18
ENDCHAR
STARTCHAR LtSmlABreveLdot
ENCODING 811
SWIDTH 840 0
DWIDTH 7 0
BBX 7 13 0 -2
BITMAP
00
36
1c
00
3c
36
06
3e
66
66
3e
00
18
ENDCHAR
STARTCHAR LtSmlRLvline
ENCODING 815
SWIDTH 840 0
DWIDTH 7 0
BBX 7 13 0 -2
BITMAP
00
00
00
00
76
3e
30
30
30
30
30
18
18
ENDCHAR
STARTCHAR LtCapALring
ENCODING 817
SWIDTH 840 0
DWIDTH 7 0
BBX 7 13 0 -2
BITMAP
00
00
18
18
18
3c
2c
2c
7e
46
5e
34
18
ENDCHAR
STARTCHAR LtCapRLring
ENCODING 818
SWIDTH 840 0
DWIDTH 7 0
BBX 7 13 0 -2
BITMAP
00
00
7c
66
66
66
7c
68
6c
66
5a
34
18
ENDCHAR
STARTCHAR LtSmlALring
ENCODING 819
SWIDTH 840 0
DWIDTH 7 0
BBX 7 13 0 -2
BITMAP
00
00
00
00
3c
36
06
3e
66
66
3e
34
18
ENDCHAR
STARTCHAR LtSmlLLring
ENCODING 820
SWIDTH 840 0
DWIDTH 7 0
BBX 7 13 0 -2
BITMAP
00
38
18
18
18
18
18
18
18
18
7e
34
18
ENDCHAR
STARTCHAR LtSmlRLring
ENCODING 821
SWIDTH 840 0
DWIDTH 7 0
BBX 7 13 0 -2
BITMAP
00
00
00
00
76
3e
30
30
30
30
30
68
30
ENDCHAR
STARTCHAR LtSmlLMacronLring
ENCODING 822
SWIDTH 840 0
DWIDTH 7 0
BBX 7 13 0 -2
BITMAP
7c
00
38
18
18
18
18
18
18
18
7e
34
18
ENDCHAR
STARTCHAR LtSmlRMacronLring
ENCODING 823
SWIDTH 840 0
DWIDTH 7 0
BBX 7 13 0 -2
BITMAP
00
3c
3c
00
76
3e
30
30
30
30
30
68
30
ENDCHAR
STARTCHAR LtSmlRAcuteLring
ENCODING 824
SWIDTH 840 0
DWIDTH 7 0
BBX 7 13 0 -2
BITMAP
06
0c
08
00
76
3e
30
30
30
30
30
68
30
ENDCHAR
STARTCHAR LtSmlRMacronAcuteLring
ENCODING 825
SWIDTH 840 0
DWIDTH 7 0
BBX 7 13 0 -2
BITMAP
0e
18
3e
00
76
3e
30
30
30
30
30
68
30
ENDCHAR
STARTCHAR LtSmlRGraveLring
ENCODING 826
SWIDTH 840 0
DWIDTH 7 0
BBX 7 13 0 -2
BITMAP
30
18
08
00
76
3e
30
30
30
30
30
68
30
ENDCHAR
STARTCHAR LtCapULdrss
ENCODING 827
SWIDTH 840 0
DWIDTH 7 0
BBX 7 13 0 -2
BITMAP
00
00
66
66
66
66
66
66
66
66
3c
00
6c
ENDCHAR
STARTCHAR LtSmlULdrss
ENCODING 828
SWIDTH 840 0
DWIDTH 7 0
BBX 7 13 0 -2
BITMAP
00
00
00
00
66
66
66
66
66
6e
36
00
6c
ENDCHAR
STARTCHAR LtCapBLmacron
ENCODING 829
SWIDTH 840 0
DWIDTH 7 0
BBX 7 13 0 -2
BITMAP
00
00
7c
66
66
64
7c
66
66
66
7c
00
7c
ENDCHAR
STARTCHAR LtCapDLmacron
ENCODING 830
SWIDTH 840 0
DWIDTH 7 0
BBX 7 13 0 -2
BITMAP
00
00
78
64
66
66
66
66
66
64
78
00
7c
ENDCHAR
STARTCHAR LtCapELmacron
ENCODING 831
SWIDTH 840 0
DWIDTH 7 0
BBX 7 13 0 -2
BITMAP
00
00
7e
62
60
64
7c
64
60
62
7e
00
7e
ENDCHAR
STARTCHAR LtCapHLmacron
ENCODING 832
SWIDTH 840 0
DWIDTH 7 0
BBX 7 13 0 -2
BITMAP
00
00
66
66
66
66
7e
66
66
66
66
00
7e
ENDCHAR
STARTCHAR LtCapKLmacron
ENCODING 833
SWIDTH 840 0
DWIDTH 7 0
BBX 7 13 0 -2
BITMAP
00
00
66
64
68
78
78
6c
6c
66
66
00
7e
ENDCHAR
STARTCHAR LtCapLLmacron
ENCODING 834
SWIDTH 840 0
DWIDTH 7 0
BBX 7 13 0 -2
BITMAP
00
00
60
60
60
60
60
60
60
62
7e
00
7e
ENDCHAR
STARTCHAR LtCapNLmacron
ENCODING 835
SWIDTH 840 0
DWIDTH 7 0
BBX 7 13 0 -2
BITMAP
00
00
62
72
72
5a
5a
4e
4e
46
46
00
7e
ENDCHAR
STARTCHAR LtCapOLmacron
ENCODING 836
SWIDTH 840 0
DWIDTH 7 0
BBX 7 13 0 -2
BITMAP
00
00
3c
66
66
66
66
66
66
66
3c
00
7e
ENDCHAR
STARTCHAR LtCapRLmacron
ENCODING 837
SWIDTH 840 0
DWIDTH 7 0
BBX 7 13 0 -2
BITMAP
00
00
7c
66
66
66
7c
68
6c
66
66
00
7e
ENDCHAR
STARTCHAR LtCapTLmacron
ENCODING 838
SWIDTH 840 0
DWIDTH 7 0
BBX 7 13 0 -2
BITMAP
00
00
7e
5a
18
18
18
18
18
18
18
00
7c
ENDCHAR
STARTCHAR LtCapZLmacron
ENCODING 839
SWIDTH 840 0
DWIDTH 7 0
BBX 7 13 0 -2
BITMAP
00
00
7e
46
0c
0c
18
30
30
62
7e
00
7e
ENDCHAR
STARTCHAR LtSmlBLmacron
ENCODING 840
SWIDTH 840 0
DWIDTH 7 0
BBX 7 13 0 -2
BITMAP
00
60
60
60
6c
76
66
66
66
76
6c
00
7e
ENDCHAR
STARTCHAR LtSmlDLmacron
ENCODING 841
SWIDTH 840 0
DWIDTH 7 0
BBX 7 13 0 -2
BITMAP
00
06
06
06
36
6e
66
66
66
6e
36
00
7e
ENDCHAR
STARTCHAR LtSmlELmacron
ENCODING 842
SWIDTH 840 0
DWIDTH 7 0
BBX 7 13 0 -2
BITMAP
00
00
00
00
3c
66
66
7e
60
66
3c
00
7e
ENDCHAR
STARTCHAR LtSmlHLmacron
ENCODING 843
SWIDTH 840 0
DWIDTH 7 0
BBX 7 13 0 -2
BITMAP
00
60
60
60
6c
76
66
66
66
66
66
00
7e
ENDCHAR
STARTCHAR LtSmlKLmacron
ENCODING 844
SWIDTH 840 0
DWIDTH 7 0
BBX 7 13 0 -2
BITMAP
00
60
60
60
66
64
68
78
6c
66
66
00
7e
ENDCHAR
STARTCHAR LtSmlLLmacron
ENCODING 845
SWIDTH 840 0
DWIDTH 7 0
BBX 7 13 0 -2
BITMAP
00
38
18
18
18
18
18
18
18
18
7e
00
7e
ENDCHAR
STARTCHAR LtSmlNLmacron
ENCODING 846
SWIDTH 840 0
DWIDTH 7 0
BBX 7 13 0 -2
BITMAP
00
00
00
00
6c
76
66
66
66
66
66
00
7e
ENDCHAR
STARTCHAR LtSmlOLmacron
ENCODING 847
SWIDTH 840 0
DWIDTH 7 0
BBX 7 13 0 -2
BITMAP
00
00
00
00
3c
66
66
66
66
66
3c
00
7e
ENDCHAR
STARTCHAR LtSmlRLmacron
ENCODING 848
SWIDTH 840 0
DWIDTH 7 0
BBX 7 13 0 -2
BITMAP
00
00
00
00
76
3e
30
30
30
30
30
00
7c
ENDCHAR
STARTCHAR LtSmlTLmacron
ENCODING 849
SWIDTH 840 0
DWIDTH 7 0
BBX 7 13 0 -2
BITMAP
00
00
30
30
7c
30
30
30
30
36
1c
00
3e
ENDCHAR
STARTCHAR LtSmlZLmacron
ENCODING 850
SWIDTH 840 0
DWIDTH 7 0
BBX 7 13 0 -2
BITMAP
00
00
00
00
7e
4e
0c
18
30
72
7e
00
7e
ENDCHAR
STARTCHAR LtCapGHLmacron
ENCODING 851
SWIDTH 840 0
DWIDTH 7 0
BBX 7 13 0 -2
BITMAP
00
00
3a
6a
4a
4a
7e
5a
5a
5a
3a
00
7e
ENDCHAR
STARTCHAR LtCapKHLmacron
ENCODING 852
SWIDTH 840 0
DWIDTH 7 0
BBX 7 13 0 -2
BITMAP
00
00
5a
5a
6a
6a
6e
6a
5a
5a
5a
00
7e
ENDCHAR
STARTCHAR LtMixGHLmacron
ENCODING 853
SWIDTH 840 0
DWIDTH 7 0
BBX 7 13 0 -2
BITMAP
00
08
38
68
4e
4e
7a
5a
5a
5a
3a
00
7e
ENDCHAR
STARTCHAR LtMixKHLmacron
ENCODING 854
SWIDTH 840 0
DWIDTH 7 0
BBX 7 13 0 -2
BITMAP
00
08
58
58
6e
6e
6a
6a
5a
5a
5a
00
7e
ENDCHAR
STARTCHAR LtSmlGHLmacron
ENCODING 855
SWIDTH 840 0
DWIDTH 7 0
BBX 7 13 0 -2
BITMAP
00
08
08
08
3e
7e
5a
5a
7a
3a
1a
50
7e
ENDCHAR
STARTCHAR LtSmlKHLmacron
ENCODING 856
SWIDTH 840 0
DWIDTH 7 0
BBX 7 13 0 -2
BITMAP
00
48
48
48
5e
5e
6a
7a
5a
5a
5a
00
7e
ENDCHAR
STARTCHAR LtCapDLcircum
ENCODING 857
SWIDTH 840 0
DWIDTH 7 0
BBX 7 13 0 -2
BITMAP
00
00
78
64
66
66
66
66
66
64
78
18
2c
ENDCHAR
STARTCHAR LtCapELcircum
ENCODING 858
SWIDTH 840 0
DWIDTH 7 0
BBX 7 13 0 -2
BITMAP
00
00
7e
62
60
64
7c
64
60
62
7e
18
2c
ENDCHAR
STARTCHAR LtCapLLcircum
ENCODING 859
SWIDTH 840 0
DWIDTH 7 0
BBX 7 13 0 -2
BITMAP
00
00
60
60
60
60
60
60
60
62
7e
18
2c
ENDCHAR
STARTCHAR LtCapNLcircum
ENCODING 860
SWIDTH 840 0
DWIDTH 7 0
BBX 7 13 0 -2
BITMAP
00
00
62
72
72
5a
5a
4e
4e
46
46
18
2c
ENDCHAR
STARTCHAR LtCapTLcircum
ENCODING 861
SWIDTH 840 0
DWIDTH 7 0
BBX 7 13 0 -2
BITMAP
00
00
7e
5a
18
18
18
18
18
18
18
18
2c
ENDCHAR
STARTCHAR LtCapULcircum
ENCODING 862
SWIDTH 840 0
DWIDTH 7 0
BBX 7 13 0 -2
BITMAP
00
00
66
66
66
66
66
66
66
66
3c
18
2c
ENDCHAR
STARTCHAR LtSmlDLcircum
ENCODING 863
SWIDTH 840 0
DWIDTH 7 0
BBX 7 13 0 -2
BITMAP
00
06
06
06
36
6e
66
66
66
6e
36
18
2c
ENDCHAR
STARTCHAR LtSmlELcircum
ENCODING 864
SWIDTH 840 0
DWIDTH 7 0
BBX 7 13 0 -2
BITMAP
00
00
00
00
3c
66
66
7e
60
66
3c
18
2c
ENDCHAR
STARTCHAR LtSmlLLcircum
ENCODING 865
SWIDTH 840 0
DWIDTH 7 0
BBX 7 13 0 -2
BITMAP
00
38
18
18
18
18
18
18
18
18
7e
18
2c
ENDCHAR
STARTCHAR LtSmlNLcircum
ENCODING 866
SWIDTH 840 0
DWIDTH 7 0
BBX 7 13 0 -2
BITMAP
00
00
00
00
6c
76
66
66
66
66
66
18
2c
ENDCHAR
STARTCHAR LtSmlTLcircum
ENCODING 867
SWIDTH 840 0
DWIDTH 7 0
BBX 7 13 0 -2
BITMAP
00
00
30
30
7c
30
30
30
30
36
1c
18
2c
ENDCHAR
STARTCHAR LtSmlULcircum
ENCODING 868
SWIDTH 840 0
DWIDTH 7 0
BBX 7 13 0 -2
BITMAP
00
00
00
00
66
66
66
66
66
6e
36
18
2c
ENDCHAR
STARTCHAR LtCapHLbreve
ENCODING 869
SWIDTH 840 0
DWIDTH 7 0
BBX 7 13 0 -2
BITMAP
00
00
66
66
66
66
7e
66
66
66
42
2c
18
ENDCHAR
STARTCHAR LtSmlHLbreve
ENCODING 870
SWIDTH 840 0
DWIDTH 7 0
BBX 7 13 0 -2
BITMAP
00
60
60
60
6c
76
66
66
66
66
42
2c
18
ENDCHAR
STARTCHAR LtSmlILinvbreve
ENCODING 871
SWIDTH 840 0
DWIDTH 7 0
BBX 7 13 0 -2
BITMAP
00
18
18
00
38
18
18
18
18
18
7e
18
2c
ENDCHAR
STARTCHAR LtSmlOLinvbreve
ENCODING 872
SWIDTH 840 0
DWIDTH 7 0
BBX 7 13 0 -2
BITMAP
00
00
00
00
3c
66
66
66
66
66
3c
18
2c
ENDCHAR
STARTCHAR LtSmlULinvbreve
ENCODING 873
SWIDTH 840 0
DWIDTH 7 0
BBX 7 13 0 -2
BITMAP
00
00
00
00
66
66
66
66
66
6e
36
18
2c
ENDCHAR
STARTCHAR LtSmlATrndLinvbreve
ENCODING 874
SWIDTH 840 0
DWIDTH 7 0
BBX 7 13 0 -2
BITMAP
00
00
00
00
6c
76
66
7c
60
6c
3c
18
2c
ENDCHAR
STARTCHAR LtCapELtilde
ENCODING 875
SWIDTH 840 0
DWIDTH 7 0
BBX 7 13 0 -2
BITMAP
00
00
7e
62
60
64
7c
64
60
62
7e
36
5c
ENDCHAR
STARTCHAR LtCapILtilde
ENCODING 876
SWIDTH 840 0
DWIDTH 7 0
BBX 7 13 0 -2
BITMAP
00
00
7e
18
18
18
18
18
18
18
7e
36
5c
ENDCHAR
STARTCHAR LtCapULtilde
ENCODING 877
SWIDTH 840 0
DWIDTH 7 0
BBX 7 13 0 -2
BITMAP
00
00
66
66
66
66
66
66
66
66
3c
36
5c
ENDCHAR
STARTCHAR LtSmlELtilde
ENCODING 878
SWIDTH 840 0
DWIDTH 7 0
BBX 7 13 0 -2
BITMAP
00
00
00
00
3c
66
66
7e
60
66
3c
36
5c
ENDCHAR
STARTCHAR LtSmlILtilde
ENCODING 879
SWIDTH 840 0
DWIDTH 7 0
BBX 7 13 0 -2
BITMAP
00
18
18
00
38
18
18
18
18
18
7e
36
5c
ENDCHAR
STARTCHAR LtSmlULtilde
ENCODING 880
SWIDTH 840 0
DWIDTH 7 0
BBX 7 13 0 -2
BITMAP
00
00
00
00
66
66
66
66
66
6e
36
3a
6c
ENDCHAR
STARTCHAR HbAlefPatah
ENCODING 1274
SWIDTH 840 0
DWIDTH 7 0
BBX 7 13 0 -2
BITMAP
00
00
00
00
4c
66
7c
3c
6e
66
72
00
3c
ENDCHAR
STARTCHAR HbAlefQamats
ENCODING 1276
SWIDTH 840 0
DWIDTH 7 0
BBX 7 13 0 -2
BITMAP
00
00
00
00
4c
66
7c
3c
6e
66
62
38
10
ENDCHAR
STARTCHAR GeGan
ENCODING 1307
SWIDTH 840 0
DWIDTH 7 0
BBX 7 13 0 -2
BITMAP
00
00
00
00
00
70
58
18
3c
66
66
66
3c
ENDCHAR
STARTCHAR GeDon
ENCODING 1308
SWIDTH 840 0
DWIDTH 7 0
BBX 7 13 0 -2
BITMAP
00
00
00
00
00
3c
66
66
66
3c
30
7c
46
ENDCHAR
STARTCHAR GeEn
ENCODING 1309
SWIDTH 840 0
DWIDTH 7 0
BBX 7 13 0 -2
BITMAP
00
00
00
00
00
3c
36
06
06
06
66
66
3c
ENDCHAR
STARTCHAR GeVin
ENCODING 1310
SWIDTH 840 0
DWIDTH 7 0
BBX 7 13 0 -2
BITMAP
00
00
00
00
00
3c
36
06
1c
06
66
66
3c
ENDCHAR
STARTCHAR GeKan
ENCODING 1314
SWIDTH 840 0
DWIDTH 7 0
BBX 7 13 0 -2
BITMAP
00
00
00
00
00
06
06
06
1c
06
66
66
3c
ENDCHAR
STARTCHAR GeLas
ENCODING 1315
SWIDTH 840 0
DWIDTH 7 0
BBX 7 13 0 -2
BITMAP
00
00
00
00
00
3c
66
66
66
64
30
7c
46
ENDCHAR
STARTCHAR GeZhar
ENCODING 1320
SWIDTH 840 0
DWIDTH 7 0
BBX 7 13 0 -2
BITMAP
00
00
00
00
00
1e
5e
76
36
06
66
66
3c
ENDCHAR
STARTCHAR GeTar
ENCODING 1323
SWIDTH 840 0
DWIDTH 7 0
BBX 7 13 0 -2
BITMAP
00
00
00
00
18
34
6e
76
66
66
66
66
3c
ENDCHAR
STARTCHAR GeUn
ENCODING 1324
SWIDTH 840 0
DWIDTH 7 0
BBX 7 13 0 -2
BITMAP
00
00
00
00
00
6c
7e
36
36
06
66
66
3c
ENDCHAR
STARTCHAR GePhar
ENCODING 1325
SWIDTH 840 0
DWIDTH 7 0
BBX 7 13 0 -2
BITMAP
00
00
00
00
00
2c
7e
56
76
2c
06
36
1c
ENDCHAR
STARTCHAR GeKhar
ENCODING 1326
SWIDTH 840 0
DWIDTH 7 0
BBX 7 13 0 -2
BITMAP
00
00
02
06
06
06
1e
36
26
06
66
66
3c
ENDCHAR
STARTCHAR GeGhan
ENCODING 1327
SWIDTH 840 0
DWIDTH 7 0
BBX 7 13 0 -2
BITMAP
00
00
00
00
00
24
7e
5a
4a
62
30
7c
46
ENDCHAR
STARTCHAR GeQar
ENCODING 1328
SWIDTH 840 0
DWIDTH 7 0
BBX 7 13 0 -2
BITMAP
00
00
00
00
00
66
66
66
3e
06
66
66
3c
ENDCHAR
STARTCHAR GeCan
ENCODING 1331
SWIDTH 840 0
DWIDTH 7 0
BBX 7 13 0 -2
BITMAP
00
00
00
00
00
28
6c
66
66
6c
66
66
3c
ENDCHAR
STARTCHAR GeCil
ENCODING 1333
SWIDTH 840 0
DWIDTH 7 0
BBX 7 13 0 -2
BITMAP
00
00
24
7e
5a
5a
40
7e
34
34
18
18
18
ENDCHAR
STARTCHAR GeChar
ENCODING 1334
SWIDTH 840 0
DWIDTH 7 0
BBX 7 13 0 -2
BITMAP
00
00
30
1c
0c
0c
3c
6e
3c
0c
6c
6c
38
ENDCHAR
STARTCHAR GeWe
ENCODING 1340
SWIDTH 840 0
DWIDTH 7 0
BBX 7 13 0 -2
BITMAP
00
00
00
00
00
3e
06
0c
18
06
66
66
3c
ENDCHAR
STARTCHAR GeHar
ENCODING 1341
SWIDTH 840 0
DWIDTH 7 0
BBX 7 13 0 -2
BITMAP
00
00
0c
18
18
0e
06
0c
18
06
66
66
3c
ENDCHAR
STARTCHAR GeFi
ENCODING 1343
SWIDTH 840 0
DWIDTH 7 0
BBX 7 13 0 -2
BITMAP
00
00
00
00
00
34
5e
5a
5a
5a
1c
18
30
ENDCHAR
STARTCHAR GeYn
ENCODING 1344
SWIDTH 840 0
DWIDTH 7 0
BBX 7 13 0 -2
BITMAP
00
00
00
00
00
3c
36
06
1c
30
66
66
3c
ENDCHAR
STARTCHAR GeElifi
ENCODING 1345
SWIDTH 840 0
DWIDTH 7 0
BBX 7 13 0 -2
BITMAP
00
00
00
00
00
66
66
66
7c
60
66
66
3c
ENDCHAR
STARTCHAR GeUo
ENCODING 1348
SWIDTH 840 0
DWIDTH 7 0
BBX 7 13 0 -2
BITMAP
00
00
00
00
00
36
7e
6c
6c
60
66
66
3c
ENDCHAR
STARTCHAR GeGanTrnd
ENCODING 1351
SWIDTH 840 0
DWIDTH 7 0
BBX 7 13 0 -2
BITMAP
00
00
00
00
00
3c
66
66
66
3c
18
1a
0e
ENDCHAR
STARTCHAR GeUnDrss
ENCODING 1354
SWIDTH 840 0
DWIDTH 7 0
BBX 7 13 0 -2
BITMAP
00
00
6c
6c
00
6c
7e
36
36
06
66
66
3c
ENDCHAR
STARTCHAR GeUnCircum
ENCODING 1356
SWIDTH 840 0
DWIDTH 7 0
BBX 7 13 0 -2
BITMAP
00
18
3c
24
00
6c
7e
36
36
06
66
66
3c
ENDCHAR
STARTCHAR GeEnMacron
ENCODING 1358
SWIDTH 840 0
DWIDTH 7 0
BBX 7 13 0 -2
BITMAP
00
00
3c
3c
00
3c
36
06
06
06
66
66
3c
ENDCHAR
STARTCHAR GeUnMacron
ENCODING 1361
SWIDTH 840 0
DWIDTH 7 0
BBX 7 13 0 -2
BITMAP
00
00
3c
3c
00
6c
7e
36
36
06
66
66
3c
ENDCHAR
STARTCHAR AmSmlEh
ENCODING 1408
SWIDTH 840 0
DWIDTH 7 0
BBX 7 13 0 -2
BITMAP
00
60
60
60
60
7e
60
60
60
60
3c
06
0c
ENDCHAR
STARTCHAR AmSmlYi
ENCODING 1422
SWIDTH 840 0
DWIDTH 7 0
BBX 7 13 0 -2
BITMAP
00
00
00
00
00
38
18
18
18
18
18
58
70
ENDCHAR
STARTCHAR AmSmlSha
ENCODING 1424
SWIDTH 840 0
DWIDTH 7 0
BBX 7 13 0 -2
BITMAP
00
00
00
00
00
3c
26
06
0c
18
30
70
3e
ENDCHAR
STARTCHAR AmSmlCha
ENCODING 1426
SWIDTH 840 0
DWIDTH 7 0
BBX 7 13 0 -2
BITMAP
00
00
00
00
00
30
38
18
10
20
60
70
3e
ENDCHAR
STARTCHAR AmSmlJheh
ENCODING 1428
SWIDTH 840 0
DWIDTH 7 0
BBX 7 13 0 -2
BITMAP
00
18
3c
4e
66
76
34
18
10
20
60
70
3e
ENDCHAR
STARTCHAR AmSmlCo
ENCODING 1434
SWIDTH 840 0
DWIDTH 7 0
BBX 7 13 0 -2
BITMAP
00
00
00
00
00
3e
66
66
66
3e
06
66
3c
ENDCHAR
STARTCHAR AmSmlKeh
ENCODING 1437
SWIDTH 840 0
DWIDTH 7 0
BBX 7 13 0 -2
BITMAP
00
00
00
00
00
3c
36
36
36
3c
30
7e
30
ENDCHAR
STARTCHAR GkCapIotTrndLbreve
ENCODING 1530
SWIDTH 840 0
DWIDTH 7 0
BBX 7 13 0 -2
BITMAP
00
00
7e
18
18
18
18
18
18
7e
00
2c
18
ENDCHAR
STARTCHAR GkCapUpsTrndLbreve
ENCODING 1531
SWIDTH 840 0
DWIDTH 7 0
BBX 7 13 0 -2
BITMAP
00
00
18
18
18
18
18
1c
2c
66
42
2c
18
ENDCHAR
STARTCHAR GkSmlIotTrndLbreve
ENCODING 1532
SWIDTH 840 0
DWIDTH 7 0
BBX 7 13 0 -2
BITMAP
00
00
00
00
38
6c
0c
0c
0e
0c
00
36
1c
ENDCHAR
STARTCHAR GkSmlUpsTrndLbreve
ENCODING 1533
SWIDTH 840 0
DWIDTH 7 0
BBX 7 13 0 -2
BITMAP
00
00
00
00
3c
66
66
66
66
32
00
6c
38
ENDCHAR
STARTCHAR ThYoYing
ENCODING 1771
SWIDTH 840 0
DWIDTH 7 0
BBX 7 13 0 -2
BITMAP
00
00
00
00
32
7a
5a
5a
5a
5e
4a
02
1c
ENDCHAR
STARTCHAR ThDoChada
ENCODING 1773
SWIDTH 840 0
DWIDTH 7 0
BBX 7 13 0 -2
BITMAP
00
00
00
00
3c
66
46
36
36
76
76
06
3c
ENDCHAR
STARTCHAR ThToPatak
ENCODING 1774
SWIDTH 840 0
DWIDTH 7 0
BBX 7 13 0 -2
BITMAP
00
00
00
00
3c
66
46
36
36
76
66
16
3e
ENDCHAR
STARTCHAR ThThoThan
ENCODING 1775
SWIDTH 840 0
DWIDTH 7 0
BBX 7 13 0 -2
BITMAP
00
00
00
00
7e
7e
04
36
36
0e
02
54
7e
ENDCHAR
STARTCHAR ThRu
ENCODING 1796
SWIDTH 840 0
DWIDTH 7 0
BBX 7 13 0 -2
BITMAP
00
00
00
00
3c
46
66
26
26
36
36
06
06
ENDCHAR
STARTCHAR ThLu
ENCODING 1798
SWIDTH 840 0
DWIDTH 7 0
BBX 7 13 0 -2
BITMAP
00
00
00
00
3c
66
46
36
36
76
76
06
06
ENDCHAR
STARTCHAR ThMaiyamok
ENCODING 1809
SWIDTH 840 0
DWIDTH 7 0
BBX 7 13 0 -2
BITMAP
00
00
00
00
2c
56
46
66
66
06
06
06
0c
ENDCHAR
STARTCHAR ThLakkhangyao
ENCODING 1810
SWIDTH 840 0
DWIDTH 7 0
BBX 7 13 0 -2
BITMAP
00
00
00
00
38
6c
6c
0c
0c
0c
0c
0c
0c
ENDCHAR
STARTCHAR ThSaraU
ENCODING 1832
SWIDTH 840 0
DWIDTH 7 0
BBX 7 13 0 -2
BITMAP
00
00
00
00
00
00
00
00
00
00
00
06
02
ENDCHAR
STARTCHAR ThSaraUu
ENCODING 1833
SWIDTH 840 0
DWIDTH 7 0
BBX 7 13 0 -2
BITMAP
00
00
00
00
00
00
00
00
00
00
00
1a
0e
ENDCHAR
STARTCHAR ThPhinthu
ENCODING 1834
SWIDTH 840 0
DWIDTH 7 0
BBX 7 13 0 -2
BITMAP
00
00
00
00
00
00
00
00
00
00
00
00
06
ENDCHAR
STARTCHAR CombHbMeteg
ENCODING 2123
SWIDTH 840 0
DWIDTH 7 0
BBX 7 13 0 -2
BITMAP
00
00
00
00
00
00
00
00
00
00
10
10
10
ENDCHAR
STARTCHAR CombHbPatah
ENCODING 2124
SWIDTH 840 0
DWIDTH 7 0
BBX 7 13 0 -2
BITMAP
00
00
00
00
00
00
00
00
00
00
00
00
3c
ENDCHAR
STARTCHAR CombHbQamats
ENCODING 2125
SWIDTH 840 0
DWIDTH 7 0
BBX 7 13 0 -2
BITMAP
00
00
00
00
00
00
00
00
00
00
00
38
10
ENDCHAR
STARTCHAR CombHbSegol
ENCODING 2126
SWIDTH 840 0
DWIDTH 7 0
BBX 7 13 0 -2
BITMAP
00
00
00
00
00
00
00
00
00
00
00
66
18
ENDCHAR
STARTCHAR CombHbHatafQamats
ENCODING 2130
SWIDTH 840 0
DWIDTH 7 0
BBX 7 13 0 -2
BITMAP
00
00
00
00
00
00
00
00
00
00
06
70
26
ENDCHAR
STARTCHAR CombLdot
ENCODING 2179
SWIDTH 840 0
DWIDTH 7 0
BBX 7 13 0 -2
BITMAP
00
00
00
00
00
00
00
00
00
00
00
00
18
ENDCHAR
STARTCHAR CombLvline
ENCODING 2180
SWIDTH 840 0
DWIDTH 7 0
BBX 7 13 0 -2
BITMAP
00
00
00
00
00
00
00
00
00
00
00
18
18
ENDCHAR
STARTCHAR CombLdrss
ENCODING 2181
SWIDTH 840 0
DWIDTH 7 0
BBX 7 13 0 -2
BITMAP
00
00
00
00
00
00
00
00
00
00
00
00
6c
ENDCHAR
STARTCHAR CombLvline2
ENCODING 2182
SWIDTH 840 0
DWIDTH 7 0
BBX 7 13 0 -2
BITMAP
00
00
00
00
00
00
00
00
00
00
00
6c
6c
ENDCHAR
STARTCHAR CombLcircum
ENCODING 2185
SWIDTH 840 0
DWIDTH 7 0
BBX 7 13 0 -2
BITMAP
00
00
00
00
00
00
00
00
00
00
00
18
2c
ENDCHAR
STARTCHAR CombLcaron
ENCODING 2186
SWIDTH 840 0
DWIDTH 7 0
BBX 7 13 0 -2
BITMAP
00
00
00
00
00
00
00
00
00
00
00
2c
18
ENDCHAR
STARTCHAR CombLbreve
ENCODING 2187
SWIDTH 840 0
DWIDTH 7 0
BBX 7 13 0 -2
BITMAP
00
00
00
00
00
00
00
00
00
00
00
2c
18
ENDCHAR
STARTCHAR CombLinvbreve
ENCODING 2188
SWIDTH 840 0
DWIDTH 7 0
BBX 7 13 0 -2
BITMAP
00
00
00
00
00
00
00
00
00
00
00
18
2c
ENDCHAR
STARTCHAR CombLmacron
ENCODING 2189
SWIDTH 840 0
DWIDTH 7 0
BBX 7 13 0 -2
BITMAP
00
00
00
00
00
00
00
00
00
00
00
00
7e
ENDCHAR
STARTCHAR CombLtilde
ENCODING 2192
SWIDTH 840 0
DWIDTH 7 0
BBX 7 13 0 -2
BITMAP
00
00
00
00
00
00
00
00
00
00
00
36
5c
ENDCHAR
STARTCHAR MArrowU
ENCODING 2487
SWIDTH 840 0
DWIDTH 7 0
BBX 7 13 0 -2
BITMAP
18
3c
7e
18
18
18
18
18
18
18
18
18
00
ENDCHAR
STARTCHAR MArrowD
ENCODING 2488
SWIDTH 840 0
DWIDTH 7 0
BBX 7 13 0 -2
BITMAP
18
18
18
18
18
18
18
18
18
7e
3c
18
00
ENDCHAR
STARTCHAR MArrowUD
ENCODING 2489
SWIDTH 840 0
DWIDTH 7 0
BBX 7 13 0 -2
BITMAP
18
3c
7e
18
18
18
18
18
18
7e
3c
18
00
ENDCHAR
STARTCHAR MArrowUDBase
ENCODING 2490
SWIDTH 840 0
DWIDTH 7 0
BBX 7 13 0 -2
BITMAP
18
3c
7e
18
18
18
18
7e
3c
18
7e
7e
00
ENDCHAR
STARTCHAR MArrowULeftD
ENCODING 2491
SWIDTH 840 0
DWIDTH 7 0
BBX 7 13 0 -2
BITMAP
6c
fc
fc
6c
6c
6c
6c
6c
6c
7e
7e
6c
00
ENDCHAR
STARTCHAR MArrowULeftU
ENCODING 2492
SWIDTH 840 0
DWIDTH 7 0
BBX 7 13 0 -2
BITMAP
6c
fe
fe
6c
6c
6c
6c
6c
6c
6c
6c
6c
00
ENDCHAR
STARTCHAR MArrowDLeftD
ENCODING 2493
SWIDTH 840 0
DWIDTH 7 0
BBX 7 13 0 -2
BITMAP
6c
6c
6c
6c
6c
6c
6c
6c
6c
fe
fe
6c
00
ENDCHAR
STARTCHAR MArrowUu
ENCODING 2494
SWIDTH 840 0
DWIDTH 7 0
BBX 7 13 0 -2
BITMAP
18
3c
7e
18
3c
7e
18
18
18
18
18
18
00
ENDCHAR
STARTCHAR MArrowDd
ENCODING 2495
SWIDTH 840 0
DWIDTH 7 0
BBX 7 13 0 -2
BITMAP
18
18
18
18
18
18
7e
3c
18
7e
3c
18
00
ENDCHAR
STARTCHAR MArrowBarU
ENCODING 2496
SWIDTH 840 0
DWIDTH 7 0
BBX 7 13 0 -2
BITMAP
18
3c
7e
18
18
18
18
18
18
18
7e
7e
00
ENDCHAR
STARTCHAR MArrowBarD
ENCODING 2497
SWIDTH 840 0
DWIDTH 7 0
BBX 7 13 0 -2
BITMAP
7e
7e
18
18
18
18
18
18
18
7e
3c
18
00
ENDCHAR
STARTCHAR MArrowLU
ENCODING 2500
SWIDTH 840 0
DWIDTH 7 0
BBX 7 13 0 -2
BITMAP
60
70
78
70
58
18
0c
0c
06
06
02
02
00
ENDCHAR
STARTCHAR MArrowRU
ENCODING 2501
SWIDTH 840 0
DWIDTH 7 0
BBX 7 13 0 -2
BITMAP
06
0e
1e
0e
1a
18
30
30
60
60
40
40
00
ENDCHAR
STARTCHAR MArrowLD
ENCODING 2502
SWIDTH 840 0
DWIDTH 7 0
BBX 7 13 0 -2
BITMAP
02
02
06
06
0c
0c
18
58
70
78
70
60
00
ENDCHAR
STARTCHAR MArrowRD
ENCODING 2503
SWIDTH 840 0
DWIDTH 7 0
BBX 7 13 0 -2
BITMAP
40
40
60
60
30
30
18
1a
0e
1e
0e
06
00
ENDCHAR
STARTCHAR MArrow2U
ENCODING 2512
SWIDTH 840 0
DWIDTH 7 0
BBX 7 13 0 -2
BITMAP
38
7c
ee
6c
6c
6c
6c
6c
6c
6c
6c
6c
00
ENDCHAR
STARTCHAR MArrow2D
ENCODING 2513
SWIDTH 840 0
DWIDTH 7 0
BBX 7 13 0 -2
BITMAP
6c
6c
6c
6c
6c
6c
6c
6c
6c
ee
7c
38
00
ENDCHAR
STARTCHAR MArrow2UD
ENCODING 2514
SWIDTH 840 0
DWIDTH 7 0
BBX 7 13 0 -2
BITMAP
38
7c
ee
6c
6c
6c
6c
6c
6c
ee
7c
38
00
ENDCHAR
STARTCHAR MHarpoonUl
ENCODING 2530
SWIDTH 840 0
DWIDTH 7 0
BBX 7 13 0 -2
BITMAP
18
38
78
18
18
18
18
18
18
18
18
18
00
ENDCHAR
STARTCHAR MHarpoonUr
ENCODING 2531
SWIDTH 840 0
DWIDTH 7 0
BBX 7 13 0 -2
BITMAP
18
1c
1e
18
18
18
18
18
18
18
18
18
00
ENDCHAR
STARTCHAR MHarpoonDl
ENCODING 2532
SWIDTH 840 0
DWIDTH 7 0
BBX 7 13 0 -2
BITMAP
18
18
18
18
18
18
18
18
18
78
38
18
00
ENDCHAR
STARTCHAR MHarpoonDr
ENCODING 2533
SWIDTH 840 0
DWIDTH 7 0
BBX 7 13 0 -2
BITMAP
18
18
18
18
18
18
18
18
18
1e
1c
18
00
ENDCHAR
STARTCHAR PCurlyBrackLTRB
ENCODING 2663
SWIDTH 840 0
DWIDTH 7 0
BBX 7 13 0 -2
BITMAP
0e
18
18
18
18
18
18
18
18
18
18
18
70
ENDCHAR
STARTCHAR PCurlyBrackLBRT
ENCODING 2664
SWIDTH 840 0
DWIDTH 7 0
BBX 7 13 0 -2
BITMAP
70
18
18
18
18
18
18
18
18
18
18
18
0e
ENDCHAR
STARTCHAR MSumT
ENCODING 2665
SWIDTH 840 0
DWIDTH 7 0
BBX 7 13 0 -2
BITMAP
00
7e
62
60
60
30
30
30
18
18
18
0c
0c
ENDCHAR
STARTCHAR MRootB
ENCODING 2667
SWIDTH 840 0
DWIDTH 7 0
BBX 7 13 0 -2
BITMAP
18
18
18
18
18
18
d8
d8
78
38
38
18
18
ENDCHAR
ENDFONT
